<mxfile host="app.diagrams.net" modified="2024-07-02T18:11:54.269Z" agent="Mozilla/5.0 (Macintosh; Intel Mac OS X 10.15; rv:126.0) Gecko/20100101 Firefox/126.0" version="24.6.4" etag="hG_8F2HhqXR7rfliMraT" type="github">
  <diagram name="Page-1" id="DxBQx5opeKoppMj1nZIX">
    <mxGraphModel>
      <root>
        <mxCell id="0" />
        <mxCell id="1" parent="0" />
      </root>
    </mxGraphModel>
  </diagram>
</mxfile>
